<svg width="39" height="38" viewBox="0 0 39 38" fill="none" xmlns="http://www.w3.org/2000/svg">
<path d="M19.5 0C8.72625 0 0 8.49684 0 18.9874C0 27.3893 5.58187 34.4858 13.3331 37.0016C14.3081 37.1678 14.6737 36.5981 14.6737 36.0997C14.6737 35.6488 14.6494 34.1535 14.6494 32.5633C9.75 33.4415 8.4825 31.4003 8.0925 30.3323C7.87312 29.7864 6.9225 28.1013 6.09375 27.6503C5.41125 27.2943 4.43625 26.4162 6.06938 26.3924C7.605 26.3687 8.70188 27.769 9.0675 28.3386C10.8225 31.2105 13.6256 30.4035 14.7469 29.9051C14.9175 28.6709 15.4294 27.8402 15.99 27.3655C11.6512 26.8908 7.1175 25.2532 7.1175 17.9905C7.1175 15.9256 7.87313 14.2168 9.11625 12.8877C8.92125 12.413 8.23875 10.4668 9.31125 7.85602C9.31125 7.85602 10.9444 7.3576 14.6737 9.80222C16.2337 9.37501 17.8913 9.1614 19.5488 9.1614C21.2063 9.1614 22.8638 9.37501 24.4238 9.80222C28.1531 7.33387 29.7863 7.85602 29.7863 7.85602C30.8588 10.4668 30.1763 12.413 29.9813 12.8877C31.2244 14.2168 31.98 15.9019 31.98 17.9905C31.98 25.2769 27.4219 26.8908 23.0831 27.3655C23.79 27.9589 24.3994 29.0981 24.3994 30.8782C24.3994 33.4177 24.375 35.4589 24.375 36.0997C24.375 36.5981 24.7406 37.1915 25.7156 37.0016C29.5869 35.7294 32.951 33.307 35.3341 30.0754C37.7172 26.8438 38.9993 22.9658 39 18.9874C39 8.49684 30.2738 0 19.5 0Z" fill="#121212"/>
</svg>
