<svg width="32" height="31" viewBox="0 0 32 31" fill="none" xmlns="http://www.w3.org/2000/svg">
<path d="M0 2.22038C0 0.993938 1.052 0 2.35 0H29.65C30.948 0 32 0.993938 32 2.22038V28.7796C32 30.0061 30.948 31 29.65 31H2.35C1.052 31 0 30.0061 0 28.7796V2.22038ZM9.886 25.9509V11.9524H5.084V25.9509H9.886ZM7.486 10.0401C9.16 10.0401 10.202 8.96675 10.202 7.62213C10.172 6.24844 9.162 5.20413 7.518 5.20413C5.874 5.20413 4.8 6.25038 4.8 7.62213C4.8 8.96675 5.842 10.0401 7.454 10.0401H7.486ZM17.302 25.9509V18.1331C17.302 17.7146 17.334 17.2961 17.462 16.9977C17.808 16.1626 18.598 15.2966 19.926 15.2966C21.664 15.2966 22.358 16.5792 22.358 18.4624V25.9509H27.16V17.9219C27.16 13.6206 24.792 11.6211 21.632 11.6211C19.084 11.6211 17.942 12.9774 17.302 13.9326V13.981H17.27C17.2806 13.9648 17.2913 13.9487 17.302 13.9326V11.9524H12.502C12.562 13.2661 12.502 25.9509 12.502 25.9509H17.302Z" fill="#121212"/>
</svg>
