<svg width="32" height="31" viewBox="0 0 32 31" fill="none" xmlns="http://www.w3.org/2000/svg">
<path d="M16 0C11.658 0 11.112 0.019375 9.406 0.093C7.7 0.1705 6.538 0.430125 5.52 0.81375C4.45219 1.20284 3.48498 1.81316 2.686 2.60206C1.87215 3.37647 1.24221 4.31334 0.84 5.3475C0.444 6.33175 0.174 7.45937 0.096 9.10625C0.02 10.7628 0 11.2898 0 15.5019C0 19.7102 0.02 20.2372 0.096 21.8899C0.176 23.5406 0.444 24.6663 0.84 25.6525C1.25 26.6716 1.796 27.5357 2.686 28.3979C3.574 29.2601 4.466 29.791 5.518 30.1862C6.538 30.5699 7.698 30.8314 9.402 30.907C11.11 30.9806 11.654 31 16 31C20.346 31 20.888 30.9806 22.596 30.907C24.298 30.8295 25.464 30.5699 26.482 30.1862C27.5491 29.797 28.5156 29.1866 29.314 28.3979C30.204 27.5357 30.75 26.6716 31.16 25.6525C31.554 24.6663 31.824 23.5406 31.904 21.8899C31.98 20.2372 32 19.7102 32 15.5C32 11.2898 31.98 10.7628 31.904 9.10819C31.824 7.45938 31.554 6.33175 31.16 5.3475C30.7578 4.31331 30.1279 3.37643 29.314 2.60206C28.5153 1.81287 27.548 1.2025 26.48 0.81375C25.46 0.430125 24.296 0.168563 22.594 0.093C20.886 0.019375 20.344 0 15.996 0H16.002H16ZM14.566 2.79388H16.002C20.274 2.79388 20.78 2.80744 22.466 2.883C24.026 2.95081 24.874 3.20463 25.438 3.41581C26.184 3.69675 26.718 4.03387 27.278 4.57637C27.838 5.11887 28.184 5.63425 28.474 6.35888C28.694 6.90331 28.954 7.72481 29.024 9.23606C29.102 10.8694 29.118 11.3596 29.118 15.4961C29.118 19.6327 29.102 20.1248 29.024 21.7581C28.954 23.2694 28.692 24.0889 28.474 24.6353C28.2175 25.3083 27.8081 25.9168 27.276 26.4159C26.716 26.9584 26.184 27.2936 25.436 27.5745C24.876 27.7876 24.028 28.0395 22.466 28.1093C20.78 28.1829 20.274 28.2003 16.002 28.2003C11.73 28.2003 11.222 28.1829 9.536 28.1093C7.976 28.0395 7.13 27.7876 6.566 27.5745C5.871 27.3263 5.24225 26.9304 4.726 26.4159C4.1935 25.9161 3.78345 25.307 3.526 24.6334C3.308 24.0889 3.046 23.2674 2.976 21.7562C2.9 20.1229 2.884 19.6327 2.884 15.4922C2.884 11.3537 2.9 10.8655 2.976 9.23219C3.048 7.72094 3.308 6.89944 3.528 6.35306C3.818 5.63038 4.166 5.11306 4.726 4.57056C5.286 4.02806 5.818 3.69288 6.566 3.41194C7.13 3.19881 7.976 2.94694 9.536 2.87719C11.012 2.81131 11.584 2.79194 14.566 2.79V2.79388ZM24.542 5.36687C24.2899 5.36687 24.0402 5.41499 23.8072 5.50846C23.5743 5.60193 23.3626 5.73894 23.1844 5.91166C23.0061 6.08437 22.8646 6.28942 22.7682 6.51508C22.6717 6.74075 22.622 6.98262 22.622 7.22688C22.622 7.47113 22.6717 7.713 22.7682 7.93867C22.8646 8.16433 23.0061 8.36938 23.1844 8.54209C23.3626 8.71481 23.5743 8.85182 23.8072 8.94529C24.0402 9.03876 24.2899 9.08688 24.542 9.08688C25.0512 9.08688 25.5396 8.89091 25.8996 8.54209C26.2597 8.19328 26.462 7.72018 26.462 7.22688C26.462 6.73357 26.2597 6.26047 25.8996 5.91166C25.5396 5.56284 25.0512 5.36687 24.542 5.36687ZM16.002 7.54075C14.9121 7.52428 13.8298 7.718 12.818 8.11065C11.8061 8.50329 10.885 9.08701 10.1083 9.82782C9.33157 10.5686 8.71473 11.4517 8.29368 12.4257C7.87264 13.3997 7.6558 14.445 7.6558 15.501C7.6558 16.5569 7.87264 17.6023 8.29368 18.5762C8.71473 19.5502 9.33157 20.4333 10.1083 21.1741C10.885 21.9149 11.8061 22.4986 12.818 22.8913C13.8298 23.2839 14.9121 23.4777 16.002 23.4612C18.1591 23.4286 20.2164 22.5756 21.73 21.0863C23.2435 19.597 24.0918 17.5909 24.0918 15.501C24.0918 13.411 23.2435 11.4049 21.73 9.91564C20.2164 8.42636 18.1591 7.57335 16.002 7.54075ZM16.002 10.3327C17.4167 10.3327 18.7734 10.8771 19.7737 11.8462C20.774 12.8152 21.336 14.1295 21.336 15.5C21.336 16.8705 20.774 18.1848 19.7737 19.1538C18.7734 20.1229 17.4167 20.6673 16.002 20.6673C14.5873 20.6673 13.2306 20.1229 12.2303 19.1538C11.23 18.1848 10.668 16.8705 10.668 15.5C10.668 14.1295 11.23 12.8152 12.2303 11.8462C13.2306 10.8771 14.5873 10.3327 16.002 10.3327Z" fill="#121212"/>
</svg>
